<svg width="40" height="48" viewBox="0 0 48 48" fill="none" xmlns="http://www.w3.org/2000/svg">
<rect width="40" height="40" rx="20" fill="black" fill-opacity="0.24"/>
<path fill-rule="evenodd" clip-rule="evenodd" d="M13.7094 14.1976C13.7094 10.7742 16.5248 8 19.999 8C23.4731 8 26.2906 10.7742 26.2906 14.1976C26.2906 17.6229 23.4731 20.3972 19.999 20.3972C16.5248 20.3972 13.7094 17.6229 13.7094 14.1976ZM20.0448 33.3333C24.1984 33.3333 27.9574 31.6948 30.6667 29.0587V27.1887C30.6667 24.9274 28.7574 23.0922 26.4 23.0922H13.6C11.2427 23.0922 9.33337 24.9274 9.33337 27.1887V28.9645C12.0491 31.6538 15.8443 33.3333 20.0448 33.3333Z" fill="white"/>
</svg>
