<svg width="48" height="48" viewBox="0 0 48 48" fill="none" xmlns="http://www.w3.org/2000/svg">
<path d="M29.613 27.516C31.0654 25.534 31.716 23.0767 31.4345 20.6357C31.1529 18.1947 29.9601 15.95 28.0947 14.3507C26.2292 12.7514 23.8286 11.9154 21.3733 12.01C18.9179 12.1046 16.5888 13.1228 14.8519 14.861C13.115 16.5991 12.0985 18.9289 12.0056 21.3843C11.9128 23.8398 12.7505 26.2397 14.3511 28.1041C15.9518 29.9684 18.1973 31.1596 20.6385 31.4394C23.0797 31.7192 25.5366 31.0669 27.5175 29.613H27.516C27.561 29.673 27.609 29.73 27.663 29.7855L33.438 35.5605C33.7193 35.842 34.1008 36.0002 34.4987 36.0003C34.8966 36.0004 35.2783 35.8425 35.5598 35.5612C35.8412 35.28 35.9994 34.8984 35.9996 34.5005C35.9997 34.1026 35.8418 33.721 35.5605 33.4395L29.7855 27.6645C29.7319 27.6102 29.6742 27.5601 29.613 27.5145V27.516ZM30 21.75C30 22.8334 29.7866 23.9062 29.372 24.9071C28.9574 25.9081 28.3497 26.8175 27.5836 27.5836C26.8176 28.3497 25.9081 28.9574 24.9071 29.372C23.9062 29.7866 22.8334 30 21.75 30C20.6666 30 19.5938 29.7866 18.5929 29.372C17.5919 28.9574 16.6825 28.3497 15.9164 27.5836C15.1503 26.8175 14.5426 25.9081 14.128 24.9071C13.7134 23.9062 13.5 22.8334 13.5 21.75C13.5 19.562 14.3692 17.4635 15.9164 15.9164C17.4635 14.3692 19.562 13.5 21.75 13.5C23.938 13.5 26.0365 14.3692 27.5836 15.9164C29.1308 17.4635 30 19.562 30 21.75Z" fill="black" fill-opacity="0.92"/>
</svg>
