<svg width="33" height="32" viewBox="0 0 33 32" fill="none" xmlns="http://www.w3.org/2000/svg">
<path d="M0.503998 6C0.503998 4.93913 0.925425 3.92172 1.67557 3.17157C2.42572 2.42143 3.44313 2 4.504 2H28.504C29.5649 2 30.5823 2.42143 31.3324 3.17157C32.0826 3.92172 32.504 4.93913 32.504 6V26C32.504 27.0609 32.0826 28.0783 31.3324 28.8284C30.5823 29.5786 29.5649 30 28.504 30H4.504C3.44313 30 2.42572 29.5786 1.67557 28.8284C0.925425 28.0783 0.503998 27.0609 0.503998 26V6ZM2.504 24V26C2.504 26.5304 2.71471 27.0391 3.08978 27.4142C3.46486 27.7893 3.97356 28 4.504 28H28.504C29.0344 28 29.5431 27.7893 29.9182 27.4142C30.2933 27.0391 30.504 26.5304 30.504 26V19L22.95 15.106C22.7624 15.012 22.5501 14.9795 22.343 15.0128C22.1359 15.0462 21.9445 15.1439 21.796 15.292L14.376 22.712L9.056 19.168C8.86392 19.0401 8.63352 18.9826 8.40387 19.0052C8.17423 19.0278 7.95946 19.1291 7.796 19.292L2.504 24ZM12.504 11C12.504 10.2044 12.1879 9.44129 11.6253 8.87868C11.0627 8.31607 10.2996 8 9.504 8C8.70835 8 7.94529 8.31607 7.38268 8.87868C6.82007 9.44129 6.504 10.2044 6.504 11C6.504 11.7956 6.82007 12.5587 7.38268 13.1213C7.94529 13.6839 8.70835 14 9.504 14C10.2996 14 11.0627 13.6839 11.6253 13.1213C12.1879 12.5587 12.504 11.7956 12.504 11Z" fill="black"/>
</svg>
