<svg width="14" height="14" viewBox="0 0 14 14" fill="none" xmlns="http://www.w3.org/2000/svg">
<path d="M11.8106 0.695446L11.941 0.565071C12.0391 0.466998 12.1556 0.389214 12.2838 0.336159C12.412 0.283105 12.5493 0.255819 12.6881 0.255859C12.8268 0.2559 12.9642 0.283266 13.0924 0.336396C13.2205 0.389526 13.337 0.467378 13.435 0.565509C13.5331 0.663639 13.6109 0.780125 13.6639 0.908317C13.717 1.03651 13.7443 1.17389 13.7442 1.31263C13.7442 1.45137 13.7168 1.58874 13.6637 1.7169C13.6106 1.84506 13.5327 1.9615 13.4346 2.05957L13.3042 2.18907C13.5272 2.4392 13.6461 2.76516 13.6365 3.10015C13.6269 3.43513 13.4896 3.75375 13.2526 3.9907L4.24709 12.9971C4.19079 13.0531 4.12032 13.0927 4.04321 13.1117L0.543214 13.9867C0.46997 14.0049 0.393253 14.0039 0.32052 13.9837C0.247788 13.9635 0.181514 13.9249 0.128141 13.8715C0.0747678 13.8181 0.0361114 13.7519 0.0159291 13.6791C-0.00425309 13.6064 -0.00527456 13.5297 0.012964 13.4564L0.887964 9.95645C0.907109 9.87966 0.946724 9.8095 1.00259 9.75345L9.43934 1.3167C9.35496 1.25731 9.25231 1.22966 9.14952 1.23862C9.04673 1.24759 8.95041 1.2926 8.87759 1.3657L5.99709 4.24707C5.95641 4.28775 5.90812 4.32001 5.85497 4.34203C5.80183 4.36404 5.74486 4.37537 5.68734 4.37537C5.62981 4.37537 5.57285 4.36404 5.5197 4.34203C5.46656 4.32001 5.41827 4.28775 5.37759 4.24707C5.33691 4.20639 5.30464 4.1581 5.28263 4.10496C5.26062 4.05181 5.24929 3.99485 5.24929 3.93732C5.24929 3.8798 5.26062 3.82283 5.28263 3.76969C5.30464 3.71654 5.33691 3.66825 5.37759 3.62757L8.25984 0.747071C8.49694 0.509959 8.81581 0.372589 9.15099 0.363152C9.48618 0.353715 9.81227 0.472926 10.0623 0.696321C10.3028 0.481455 10.6139 0.362607 10.9363 0.362445C11.2587 0.362284 11.57 0.480821 11.8106 0.695446ZM11.2471 1.3657C11.165 1.28368 11.0538 1.2376 10.9378 1.2376C10.8218 1.2376 10.7105 1.28368 10.6285 1.3657L1.70609 10.2863L1.03759 12.9612L3.71246 12.2927L12.6348 3.37207C12.6756 3.33143 12.7079 3.28315 12.73 3.23C12.752 3.17685 12.7634 3.11987 12.7634 3.06232C12.7634 3.00477 12.752 2.94779 12.73 2.89464C12.7079 2.84149 12.6756 2.79321 12.6348 2.75257L11.248 1.3657H11.2471Z" fill="black" fill-opacity="0.8"/>
</svg>
