<svg width="9" height="10" viewBox="0 0 9 10" fill="none" xmlns="http://www.w3.org/2000/svg">
<path d="M0.75 9.5C0.75 9.5 0 9.5 0 8.75C0 8 0.75 5.75 4.5 5.75C8.25 5.75 9 8 9 8.75C9 9.5 8.25 9.5 8.25 9.5H0.75ZM4.5 5C5.09674 5 5.66903 4.76295 6.09099 4.34099C6.51295 3.91903 6.75 3.34674 6.75 2.75C6.75 2.15326 6.51295 1.58097 6.09099 1.15901C5.66903 0.737053 5.09674 0.5 4.5 0.5C3.90326 0.5 3.33097 0.737053 2.90901 1.15901C2.48705 1.58097 2.25 2.15326 2.25 2.75C2.25 3.34674 2.48705 3.91903 2.90901 4.34099C3.33097 4.76295 3.90326 5 4.5 5Z" fill="black" fill-opacity="0.8"/>
</svg>
