<svg width="12" height="12" viewBox="0 0 12 12" fill="none" xmlns="http://www.w3.org/2000/svg">
<path d="M4.5 6C5.09674 6 5.66903 5.76295 6.09099 5.34099C6.51295 4.91903 6.75 4.34674 6.75 3.75C6.75 3.15326 6.51295 2.58097 6.09099 2.15901C5.66903 1.73705 5.09674 1.5 4.5 1.5C3.90326 1.5 3.33097 1.73705 2.90901 2.15901C2.48705 2.58097 2.25 3.15326 2.25 3.75C2.25 4.34674 2.48705 4.91903 2.90901 5.34099C3.33097 5.76295 3.90326 6 4.5 6ZM6 3.75C6 4.14782 5.84196 4.52936 5.56066 4.81066C5.27936 5.09196 4.89782 5.25 4.5 5.25C4.10218 5.25 3.72064 5.09196 3.43934 4.81066C3.15804 4.52936 3 4.14782 3 3.75C3 3.35218 3.15804 2.97064 3.43934 2.68934C3.72064 2.40804 4.10218 2.25 4.5 2.25C4.89782 2.25 5.27936 2.40804 5.56066 2.68934C5.84196 2.97064 6 3.35218 6 3.75ZM9 9.75C9 10.5 8.25 10.5 8.25 10.5H0.75C0.75 10.5 0 10.5 0 9.75C0 9 0.75 6.75 4.5 6.75C8.25 6.75 9 9 9 9.75ZM8.25 9.747C8.24925 9.5625 8.1345 9.0075 7.626 8.499C7.137 8.01 6.21675 7.5 4.5 7.5C2.7825 7.5 1.863 8.01 1.374 8.499C0.8655 9.0075 0.7515 9.5625 0.75 9.747H8.25Z" fill="black"/>
<path fill-rule="evenodd" clip-rule="evenodd" d="M11.891 3.8595C11.9259 3.89433 11.9536 3.93571 11.9725 3.98127C11.9914 4.02683 12.0011 4.07567 12.0011 4.125C12.0011 4.17432 11.9914 4.22317 11.9725 4.26872C11.9536 4.31428 11.9259 4.35566 11.891 4.3905L9.64097 6.6405C9.60614 6.67542 9.56476 6.70313 9.5192 6.72203C9.47364 6.74094 9.4248 6.75067 9.37547 6.75067C9.32615 6.75067 9.27731 6.74094 9.23175 6.72203C9.18619 6.70313 9.14481 6.67542 9.10997 6.6405L7.98497 5.5155C7.91456 5.44508 7.875 5.34958 7.875 5.25C7.875 5.15042 7.91456 5.05491 7.98497 4.9845C8.05539 4.91408 8.15089 4.87453 8.25047 4.87453C8.35006 4.87453 8.44556 4.91408 8.51597 4.9845L9.37547 5.84475L11.36 3.8595C11.3948 3.82458 11.4362 3.79687 11.4817 3.77796C11.5273 3.75906 11.5761 3.74933 11.6255 3.74933C11.6748 3.74933 11.7236 3.75906 11.7692 3.77796C11.8148 3.79687 11.8561 3.82458 11.891 3.8595Z" fill="black"/>
</svg>
