<svg width="48" height="48" viewBox="0 0 48 48" fill="none" xmlns="http://www.w3.org/2000/svg">
<path d="M35.2529 14.91C35.3931 15.0506 35.4718 15.241 35.4718 15.4395C35.4718 15.638 35.3931 15.8284 35.2529 15.969L33.6884 17.535L30.6884 14.535L32.2529 12.969C32.3936 12.8284 32.5843 12.7494 32.7832 12.7494C32.9821 12.7494 33.1728 12.8284 33.3134 12.969L35.2529 14.9085V14.91ZM32.6279 18.594L29.6279 15.594L19.4084 25.815C19.3259 25.8975 19.2637 25.9982 19.2269 26.109L18.0194 29.73C17.9975 29.796 17.9944 29.8668 18.0105 29.9345C18.0265 30.0022 18.061 30.0641 18.1102 30.1132C18.1594 30.1624 18.2213 30.197 18.2889 30.213C18.3566 30.229 18.4274 30.2259 18.4934 30.204L22.1144 28.9965C22.2251 28.9602 22.3257 28.8985 22.4084 28.8165L32.6279 18.5955V18.594Z" fill="black" fill-opacity="0.92"/>
<path fill-rule="evenodd" clip-rule="evenodd" d="M13.5 32.25C13.5 32.8467 13.7371 33.419 14.159 33.841C14.581 34.2629 15.1533 34.5 15.75 34.5H32.25C32.8467 34.5 33.419 34.2629 33.841 33.841C34.2629 33.419 34.5 32.8467 34.5 32.25V23.25C34.5 23.0511 34.421 22.8603 34.2803 22.7197C34.1397 22.579 33.9489 22.5 33.75 22.5C33.5511 22.5 33.3603 22.579 33.2197 22.7197C33.079 22.8603 33 23.0511 33 23.25V32.25C33 32.4489 32.921 32.6397 32.7803 32.7803C32.6397 32.921 32.4489 33 32.25 33H15.75C15.5511 33 15.3603 32.921 15.2197 32.7803C15.079 32.6397 15 32.4489 15 32.25V15.75C15 15.5511 15.079 15.3603 15.2197 15.2197C15.3603 15.079 15.5511 15 15.75 15H25.5C25.6989 15 25.8897 14.921 26.0303 14.7803C26.171 14.6397 26.25 14.4489 26.25 14.25C26.25 14.0511 26.171 13.8603 26.0303 13.7197C25.8897 13.579 25.6989 13.5 25.5 13.5H15.75C15.1533 13.5 14.581 13.7371 14.159 14.159C13.7371 14.581 13.5 15.1533 13.5 15.75V32.25Z" fill="black" fill-opacity="0.92"/>
</svg>
