<svg width="24" height="24" viewBox="0 0 24 24" fill="none" xmlns="http://www.w3.org/2000/svg">
<path d="M12.5006 5.5623C12.5006 6.00302 12.5006 6.44374 12.5006 6.89781C12.7692 6.88232 12.7692 6.88232 13.0432 6.86651C14.6997 6.87529 16.1844 7.41893 17.5088 8.40026C17.6216 8.51841 17.7343 8.63655 17.8505 8.75827C18.3094 9.19425 18.7293 9.18759 19.3451 9.23496C19.5329 9.86098 19.5329 9.86098 19.3451 10.2366C14.4972 10.2366 9.64931 10.2366 4.6545 10.2366C4.48756 9.56884 4.48756 9.56884 4.6545 9.23496C4.82321 9.22463 4.99193 9.2143 5.16575 9.20366C5.76284 9.13799 6.03643 8.92337 6.46996 8.51503C7.68204 7.37535 9.27347 6.88276 10.9251 6.87695C11.1145 6.88383 11.3039 6.89072 11.499 6.89781C11.499 6.4571 11.499 6.01638 11.499 5.5623C11.9148 5.35439 12.0684 5.43263 12.5006 5.5623ZM7.6594 9.23496C10.5241 9.23496 13.3887 9.23496 16.3402 9.23496C15.1618 8.05655 13.5855 7.99467 11.9998 7.98292C10.4141 7.99467 8.8378 8.05655 7.6594 9.23496Z" fill="black"/>
<path d="M5.99004 10.9043C6.32058 10.9043 6.65111 10.9043 6.99167 10.9043C6.9941 11.0466 6.99654 11.1889 6.99905 11.3355C7.00927 11.866 7.02166 12.3964 7.03548 12.9269C7.04102 13.156 7.0457 13.3851 7.0495 13.6142C7.05513 13.9445 7.06412 14.2748 7.07318 14.605C7.07755 14.8035 7.08193 15.0019 7.08643 15.2064C7.16491 15.7927 7.29857 16.1148 7.65943 16.5803C8.12882 16.7367 8.42254 16.7699 8.90878 16.7741C9.13529 16.7765 9.13529 16.7765 9.36639 16.779C9.61054 16.78 9.61054 16.78 9.85963 16.7811C10.0274 16.7821 10.1951 16.783 10.368 16.784C10.723 16.7856 11.078 16.7867 11.4331 16.7873C11.9757 16.7889 12.5182 16.7941 13.0608 16.7994C13.4058 16.8005 13.7507 16.8013 14.0957 16.802C14.2578 16.804 14.4199 16.8061 14.5869 16.8082C15.7163 16.809 15.7163 16.809 16.6741 16.2464C16.8614 15.6846 16.8758 15.2296 16.8939 14.6376C16.9009 14.4208 16.9079 14.204 16.9151 13.9806C16.9217 13.7517 16.9284 13.5227 16.935 13.2937C16.9422 13.0627 16.9495 12.8317 16.9568 12.6008C16.9745 12.0353 16.9916 11.4698 17.008 10.9043C17.3385 10.9043 17.6691 10.9043 18.0096 10.9043C18.0096 11.1247 18.0096 11.3451 18.0096 11.5721C18.4504 11.5721 18.8911 11.5721 19.3451 11.5721C19.5329 12.1981 19.5329 12.1981 19.3451 12.5737C18.9044 12.5737 18.4637 12.5737 18.0096 12.5737C18.0149 12.7479 18.0149 12.7479 18.0202 12.9256C18.0342 13.4552 18.0428 13.9847 18.0514 14.5144C18.057 14.6971 18.0626 14.8798 18.0683 15.068C18.0811 16.1205 18.0839 16.8009 17.3419 17.5819C16.8062 17.9186 16.3833 17.9593 15.756 17.9643C15.5722 17.9664 15.3883 17.9685 15.1988 17.9707C15.0009 17.9711 14.803 17.9715 14.5991 17.9719C14.3949 17.973 14.1908 17.9741 13.9804 17.9752C13.5485 17.9769 13.1165 17.9777 12.6846 17.9776C12.0244 17.9784 11.3643 17.9844 10.7041 17.9908C10.2844 17.9917 9.86463 17.9924 9.44489 17.9927C9.24766 17.9951 9.05044 17.9975 8.84724 18C7.79835 17.9942 7.10157 17.9889 6.32391 17.248C5.94852 16.7253 5.9507 16.2717 5.95743 15.6386C5.95851 15.46 5.95958 15.2814 5.96069 15.0974C5.96349 14.9119 5.96629 14.7264 5.96917 14.5353C5.97068 14.3472 5.97218 14.1591 5.97373 13.9653C5.97767 13.5014 5.98316 13.0376 5.99004 12.5737C5.54932 12.5737 5.1086 12.5737 4.65453 12.5737C4.46672 11.9477 4.46672 11.9477 4.65453 11.5721C5.09525 11.5721 5.53596 11.5721 5.99004 11.5721C5.99004 11.3517 5.99004 11.1314 5.99004 10.9043Z" fill="black"/>
<path d="M12 11.2382V15.2448" stroke="black" stroke-width="1.2"/>
<path d="M9.99658 13.2415H14.0031" stroke="black" stroke-width="1.2"/>
</svg>
