<svg width="32" height="32" viewBox="0 0 32 32" fill="none" xmlns="http://www.w3.org/2000/svg">
<path d="M29.0455 15.1691C29.0455 14.9226 29.0679 14.7433 28.9114 14.5416C28.6431 14.183 28.3301 13.8468 28.0172 13.5331C27.5253 13.0848 26.877 12.7262 26.2958 12.4349C24.9992 11.7849 23.6131 11.3367 22.2047 11.0229C19.2538 10.373 16.1687 10.2609 13.1507 10.3954C11.9212 10.4626 10.6916 10.5299 9.48442 10.754C9.01496 10.8436 8.54549 10.9333 8.09838 11.0902C7.60656 11.2471 7.09238 11.4263 6.68998 11.7401C6.55585 11.8298 6.44407 11.9418 6.33229 12.0539C6.24287 12.1659 6.15345 12.3004 6.08638 12.4349C6.01932 12.5469 5.92989 12.659 5.88518 12.7935C5.84047 12.9055 5.81812 12.9952 5.81812 13.0848C5.81812 13.1969 5.86283 13.2865 5.86283 13.3762C5.86283 13.3986 6.55585 13.4658 6.62291 13.4882C6.89118 13.5331 7.15945 13.5555 7.42771 13.5779C8.41136 13.6899 9.41736 13.7796 10.401 13.8692C12.4577 14.0485 14.5368 14.2502 16.6158 14.4295C18.6055 14.6088 20.5728 14.7657 22.5624 14.9674C24.5744 15.1691 26.5641 15.4381 28.5984 15.3932C28.7102 15.3932 28.8443 15.3932 28.9561 15.3932C29.1126 15.3932 29.0455 15.326 29.0455 15.1691ZM11.1111 12.2224C10.7758 12.4241 10.6666 12.4446 10.3339 12.7486C9.77504 13.3313 8.7914 13.0176 8.05367 12.9503C7.94189 12.9503 7.83011 12.9279 7.69598 12.9055C7.56185 12.8831 7.33829 12.9279 7.36065 12.7935C7.36065 12.6142 7.40536 12.4797 7.47243 12.3004C7.56185 12.0987 7.91954 12.0091 8.12073 11.9194C8.389 11.8073 8.65727 11.7177 8.94789 11.6505C9.9986 11.3591 11.1164 11.1798 12.2118 11.2022C12.2565 11.2022 12.3012 11.2022 12.3459 11.2022C11.9212 11.4936 11.5555 11.955 11.1111 12.2224Z" fill="#29813F"/>
<path d="M6.04286 4.52718C4.90273 4.45994 3.89673 3.36177 4.00851 2.21877C4.14264 0.986118 5.39455 0.112059 6.55704 0C6.10993 0.717177 5.3722 1.32229 5.14864 2.17394C4.90273 3.048 5.5734 3.85483 6.04286 4.52718Z" fill="#29813F"/>
<path d="M7.24878 9.20718C7.85238 7.728 8.88073 6.47294 9.50669 4.99376C9.84202 4.20935 9.9538 3.42494 9.19371 2.88706C8.61247 2.46123 7.91944 2.23711 7.27113 1.99059C8.07593 1.65441 9.12664 1.632 9.93144 1.99059C10.8927 2.41641 11.4293 3.40253 11.2951 4.43347C11.161 5.57647 10.468 6.60741 9.68553 7.43665C8.97015 8.15382 8.143 8.78135 7.24878 9.20718Z" fill="#29813F"/>
<path d="M3.69465 14.945C1.57087 14.8329 -0.664678 12.8383 0.184832 10.5747C0.900209 8.66968 3.22518 7.52668 5.10305 7.28015C4.05234 8.5128 2.50981 9.43168 1.74972 10.9109C0.94492 12.5245 2.6663 13.9365 3.69465 14.945Z" fill="#29813F"/>
<path d="M20.3942 10.0368L16.1467 9.61095C15.8784 9.58854 15.6772 9.34201 15.7219 9.07307L15.8784 7.45942C15.9008 7.19048 16.1467 6.98877 16.415 7.0336L20.6625 7.45942C20.9308 7.48183 21.132 7.72836 21.0873 7.9973L20.9308 9.61095C20.9084 9.87989 20.6625 10.0592 20.3942 10.0368Z" fill="#2B823F"/>
<path d="M31.997 19.2029L31.9523 18.7323C31.8852 18.1495 31.371 17.7237 30.7898 17.791L28.1742 18.0599C28.1518 17.6565 27.8389 17.3203 27.4365 17.3203H6.5564C6.154 17.3203 5.81866 17.6565 5.81866 18.0823V18.4857L3.35955 18.2392C2.77831 18.172 2.26413 18.5978 2.19707 19.1805L2.15236 19.6511C2.08529 20.2338 2.51004 20.7493 3.09129 20.8166L5.81866 21.1079V21.5561V22.1388V28.4366C5.81866 30.4088 6.9588 32 8.36719 32H25.6257C27.0341 32 28.1742 30.4088 28.1742 28.4366V22.1388V21.5561V20.6597L31.0357 20.3683C31.617 20.3235 32.0417 19.7856 31.997 19.2029ZM12.3912 30.2967H9.37319C9.35084 30.2967 9.32848 30.2967 9.30613 30.2967H9.26142C8.34484 30.2967 7.60711 29.3779 7.60711 28.2348V22.0492C7.60711 21.982 7.60711 21.9371 7.60711 21.8699V20.5476C7.60711 20.2338 7.87537 19.9649 8.18835 19.9649H9.26142H9.30613H9.37319H11.5193H12.3912V30.2967Z" fill="#2B823F"/>
</svg>
