<svg width="136" height="32" viewBox="0 0 136 32" fill="none" xmlns="http://www.w3.org/2000/svg">
<path d="M126.426 25.5795C125.498 25.5795 124.675 25.4249 123.956 25.1155C123.244 24.7999 122.679 24.3264 122.263 23.6951C121.853 23.0574 121.648 22.2588 121.648 21.2992C121.648 20.4912 121.79 19.8093 122.074 19.2538C122.357 18.6982 122.748 18.2469 123.247 17.8996C123.745 17.5524 124.319 17.2904 124.969 17.1136C125.618 16.9306 126.312 16.8075 127.05 16.7443C127.876 16.6686 128.542 16.5897 129.046 16.5076C129.551 16.4192 129.917 16.2961 130.144 16.1383C130.377 15.9741 130.494 15.7437 130.494 15.447V15.3996C130.494 14.9135 130.327 14.5379 129.992 14.2727C129.658 14.0076 129.207 13.875 128.639 13.875C128.028 13.875 127.536 14.0076 127.164 14.2727C126.791 14.5379 126.555 14.9041 126.454 15.3712L122.187 15.2197C122.313 14.3359 122.638 13.5467 123.162 12.8523C123.691 12.1515 124.417 11.6023 125.338 11.2046C126.265 10.8005 127.378 10.5985 128.677 10.5985C129.604 10.5985 130.459 10.709 131.241 10.9299C132.023 11.1446 132.705 11.4603 133.285 11.8769C133.865 12.2873 134.313 12.7923 134.628 13.3921C134.95 13.9918 135.111 14.6768 135.111 15.447V25.3333H130.759V23.3068H130.645C130.387 23.7992 130.055 24.2159 129.652 24.5568C129.254 24.8977 128.785 25.1534 128.242 25.3239C127.706 25.4943 127.1 25.5795 126.426 25.5795ZM127.854 22.5492C128.352 22.5492 128.8 22.4482 129.198 22.2462C129.601 22.0442 129.923 21.7664 130.163 21.4129C130.402 21.053 130.522 20.6364 130.522 20.1629V18.7803C130.39 18.8498 130.229 18.9129 130.04 18.9697C129.857 19.0265 129.655 19.0802 129.434 19.1307C129.213 19.1812 128.986 19.2254 128.753 19.2633C128.52 19.3011 128.296 19.3359 128.081 19.3674C127.646 19.4369 127.274 19.5442 126.965 19.6894C126.662 19.8346 126.429 20.024 126.265 20.2576C126.107 20.4849 126.028 20.7563 126.028 21.072C126.028 21.5518 126.199 21.9179 126.539 22.1705C126.886 22.423 127.324 22.5492 127.854 22.5492Z" fill="#2B823F"/>
<path d="M111.881 25.5795C110.953 25.5795 110.13 25.4249 109.411 25.1155C108.699 24.7999 108.134 24.3264 107.718 23.6951C107.308 23.0574 107.103 22.2588 107.103 21.2992C107.103 20.4912 107.245 19.8093 107.529 19.2538C107.812 18.6982 108.203 18.2469 108.702 17.8996C109.2 17.5524 109.774 17.2904 110.424 17.1136C111.073 16.9306 111.767 16.8075 112.505 16.7443C113.331 16.6686 113.997 16.5897 114.501 16.5076C115.006 16.4192 115.372 16.2961 115.599 16.1383C115.832 15.9741 115.949 15.7437 115.949 15.447V15.3996C115.949 14.9135 115.782 14.5379 115.447 14.2727C115.113 14.0076 114.662 13.875 114.094 13.875C113.483 13.875 112.991 14.0076 112.619 14.2727C112.246 14.5379 112.01 14.9041 111.909 15.3712L107.642 15.2197C107.768 14.3359 108.093 13.5467 108.617 12.8523C109.146 12.1515 109.872 11.6023 110.793 11.2046C111.72 10.8005 112.833 10.5985 114.132 10.5985C115.059 10.5985 115.914 10.709 116.696 10.9299C117.478 11.1446 118.159 11.4603 118.74 11.8769C119.32 12.2873 119.768 12.7923 120.083 13.3921C120.405 13.9918 120.566 14.6768 120.566 15.447V25.3333H116.214V23.3068H116.1C115.842 23.7992 115.51 24.2159 115.107 24.5568C114.709 24.8977 114.239 25.1534 113.697 25.3239C113.161 25.4943 112.555 25.5795 111.881 25.5795ZM113.309 22.5492C113.807 22.5492 114.255 22.4482 114.653 22.2462C115.056 22.0442 115.378 21.7664 115.618 21.4129C115.857 21.053 115.977 20.6364 115.977 20.1629V18.7803C115.845 18.8498 115.684 18.9129 115.495 18.9697C115.312 19.0265 115.11 19.0802 114.889 19.1307C114.668 19.1812 114.441 19.2254 114.208 19.2633C113.975 19.3011 113.751 19.3359 113.536 19.3674C113.101 19.4369 112.729 19.5442 112.42 19.6894C112.117 19.8346 111.884 20.024 111.72 20.2576C111.562 20.4849 111.483 20.7563 111.483 21.072C111.483 21.5518 111.654 21.9179 111.994 22.1705C112.341 22.423 112.779 22.5492 113.309 22.5492Z" fill="#2B823F"/>
<path d="M97.1157 25.5417C96.0434 25.5417 95.0689 25.2639 94.1922 24.7084C93.3155 24.1528 92.6154 23.3195 92.0919 22.2084C91.5684 21.0972 91.3066 19.7178 91.3066 18.0701C91.3066 16.3593 91.5779 14.9514 92.1203 13.8466C92.6627 12.7418 93.3723 11.9243 94.249 11.394C95.132 10.8637 96.0813 10.5985 97.0967 10.5985C97.8599 10.5985 98.5127 10.7311 99.0552 10.9963C99.5976 11.2551 100.045 11.5897 100.399 12C100.752 12.4104 101.02 12.8365 101.203 13.2785H101.297V5.93945H105.924V25.3333H101.345V22.9754H101.203C101.007 23.4236 100.73 23.8435 100.37 24.2349C100.011 24.6263 99.5597 24.9419 99.0173 25.1818C98.4812 25.4217 97.8473 25.5417 97.1157 25.5417ZM98.724 21.9337C99.2854 21.9337 99.7647 21.7759 100.162 21.4603C100.559 21.1383 100.865 20.6869 101.08 20.1061C101.294 19.5253 101.401 18.8435 101.401 18.0606C101.401 17.2652 101.294 16.5802 101.08 16.0057C100.872 15.4312 100.566 14.9893 100.162 14.68C99.7647 14.3706 99.2854 14.216 98.724 14.216C98.1501 14.216 97.6644 14.3738 97.267 14.6894C96.8697 15.0051 96.5669 15.4502 96.3588 16.0247C96.157 16.5992 96.056 17.2778 96.056 18.0606C96.056 18.8435 96.1601 19.5253 96.3683 20.1061C96.5764 20.6869 96.876 21.1383 97.267 21.4603C97.6644 21.7759 98.1501 21.9337 98.724 21.9337Z" fill="#2B823F"/>
<path d="M76.2501 25.6079C74.73 25.6079 73.4181 25.3081 72.3143 24.7083C71.2169 24.1023 70.3717 23.2405 69.7788 22.1231C69.1922 20.9994 68.8989 19.6641 68.8989 18.1174C68.8989 16.6149 69.1954 15.3018 69.7883 14.178C70.3811 13.048 71.2169 12.1705 72.2954 11.5455C73.374 10.9142 74.6449 10.5985 76.1082 10.5985C77.1426 10.5985 78.0887 10.7595 78.9465 11.0815C79.8042 11.4034 80.5454 11.8801 81.1698 12.5114C81.7942 13.1427 82.2799 13.9224 82.6268 14.8504C82.9737 15.7721 83.1471 16.8296 83.1471 18.0227V19.178H70.5167V16.4886H78.8424C78.8361 15.9962 78.7194 15.5575 78.4923 15.1724C78.2653 14.7873 77.9531 14.4874 77.5557 14.2727C77.1646 14.0518 76.7137 13.9413 76.2028 13.9413C75.6856 13.9413 75.222 14.0581 74.812 14.2917C74.402 14.519 74.0772 14.8315 73.8375 15.2292C73.5979 15.6206 73.4717 16.0657 73.4591 16.5644V19.3011C73.4591 19.8946 73.5758 20.4154 73.8092 20.8636C74.0425 21.3056 74.3737 21.6496 74.8026 21.8958C75.2315 22.142 75.7423 22.2652 76.3352 22.2652C76.7452 22.2652 77.1173 22.2083 77.4516 22.0947C77.7859 21.9811 78.0729 21.8138 78.3126 21.5928C78.5522 21.3718 78.732 21.1004 78.8518 20.7784L83.0998 20.9015C82.9232 21.8548 82.5353 22.685 81.9361 23.392C81.3432 24.0928 80.5643 24.6389 79.5993 25.0303C78.6342 25.4154 77.5179 25.6079 76.2501 25.6079Z" fill="#2B823F"/>
<path d="M61.2631 25.6079C59.7431 25.6079 58.4312 25.3081 57.3274 24.7083C56.2299 24.1023 55.3847 23.2405 54.7919 22.1231C54.2053 20.9994 53.912 19.6641 53.912 18.1174C53.912 16.6149 54.2084 15.3018 54.8013 14.178C55.3942 13.048 56.2299 12.1705 57.3085 11.5455C58.387 10.9142 59.6579 10.5985 61.1212 10.5985C62.1556 10.5985 63.1017 10.7595 63.9595 11.0815C64.8173 11.4034 65.5584 11.8801 66.1828 12.5114C66.8073 13.1427 67.2929 13.9224 67.6398 14.8504C67.9867 15.7721 68.1602 16.8296 68.1602 18.0227V19.178H55.5298V16.4886H63.8554C63.8491 15.9962 63.7325 15.5575 63.5054 15.1724C63.2783 14.7873 62.9661 14.4874 62.5688 14.2727C62.1777 14.0518 61.7267 13.9413 61.2158 13.9413C60.6986 13.9413 60.2351 14.0581 59.8251 14.2917C59.4151 14.519 59.0903 14.8315 58.8506 15.2292C58.6109 15.6206 58.4848 16.0657 58.4722 16.5644V19.3011C58.4722 19.8946 58.5889 20.4154 58.8222 20.8636C59.0556 21.3056 59.3867 21.6496 59.8156 21.8958C60.2445 22.142 60.7554 22.2652 61.3483 22.2652C61.7583 22.2652 62.1304 22.2083 62.4647 22.0947C62.799 21.9811 63.086 21.8138 63.3256 21.5928C63.5653 21.3718 63.7451 21.1004 63.8649 20.7784L68.1129 20.9015C67.9363 21.8548 67.5484 22.685 66.9492 23.392C66.3563 24.0928 65.5773 24.6389 64.6123 25.0303C63.6473 25.4154 62.5309 25.6079 61.2631 25.6079Z" fill="#2B823F"/>
<path d="M42.962 30.7879C42.407 30.7879 41.8835 30.7437 41.3915 30.6553C40.8995 30.5733 40.4769 30.4628 40.1237 30.3239L41.1455 26.9622C41.5996 27.1137 42.0096 27.2021 42.3754 27.2273C42.7476 27.2526 43.0661 27.1926 43.331 27.0474C43.6022 26.9085 43.8103 26.6591 43.9554 26.2993L44.1352 25.8637L38.9695 10.788H43.8135L46.4909 21.1667H46.6423L49.3576 10.788H54.23L48.7521 26.7254C48.4872 27.5209 48.1119 28.2216 47.6263 28.8277C47.1469 29.4401 46.5256 29.9199 45.7624 30.2671C45.0056 30.6143 44.0721 30.7879 42.962 30.7879Z" fill="#2B823F"/>
<path d="M90.1747 16.2221C90.9782 17.6956 90.7742 20.5971 89.2859 21.3324C87.6704 22.1084 84.8456 21.3324 83.6889 19.5578C85.2896 19.5546 86.2926 19.2617 87.5105 18.8888C88.8419 18.2213 89.7151 17.3222 90.1747 16.2221Z" fill="#29813F"/>
<path d="M29.0455 15.1691C29.0455 14.9226 29.0678 14.7433 28.9113 14.5416C28.6431 14.183 28.3301 13.8468 28.0171 13.533C27.5253 13.0848 26.877 12.7262 26.2957 12.4349C24.9991 11.7849 23.6131 11.3367 22.2047 11.0229C19.2538 10.373 16.1687 10.2609 13.1507 10.3954C11.9212 10.4626 10.6916 10.5299 9.48442 10.754C9.01495 10.8436 8.54548 10.9333 8.09837 11.0902C7.60655 11.2471 7.09238 11.4263 6.68998 11.7401C6.55585 11.8298 6.44407 11.9418 6.33229 12.0539C6.24287 12.1659 6.15345 12.3004 6.08638 12.4349C6.01931 12.5469 5.92989 12.659 5.88518 12.7935C5.84047 12.9055 5.81812 12.9952 5.81812 13.0848C5.81812 13.1969 5.86283 13.2865 5.86283 13.3762C5.86283 13.3986 6.55585 13.4658 6.62291 13.4882C6.89118 13.533 7.15944 13.5555 7.42771 13.5779C8.41135 13.6899 9.41735 13.7796 10.401 13.8692C12.4577 14.0485 14.5368 14.2502 16.6158 14.4295C18.6055 14.6088 20.5727 14.7657 22.5624 14.9674C24.5744 15.1691 26.564 15.438 28.5984 15.3932C28.7101 15.3932 28.8443 15.3932 28.956 15.3932C29.1125 15.3932 29.0455 15.326 29.0455 15.1691ZM11.1111 12.2224C10.7757 12.4241 10.6666 12.4446 10.3339 12.7486C9.77504 13.3313 8.79139 13.0176 8.05366 12.9503C7.94189 12.9503 7.83011 12.9279 7.69598 12.9055C7.56184 12.8831 7.33829 12.9279 7.36064 12.7935C7.36064 12.6142 7.40536 12.4797 7.47242 12.3004C7.56184 12.0987 7.91953 12.0091 8.12073 11.9194C8.389 11.8073 8.65726 11.7177 8.94788 11.6505C9.99859 11.3591 11.1164 11.1798 12.2118 11.2022C12.2565 11.2022 12.3012 11.2022 12.3459 11.2022C11.9212 11.4936 11.5555 11.955 11.1111 12.2224Z" fill="#29813F"/>
<path d="M6.04298 4.52717C4.90285 4.45993 3.89686 3.36176 4.00863 2.21876C4.14277 0.986116 5.39467 0.112059 6.55716 0C6.11005 0.717175 5.37232 1.32229 5.14876 2.17394C4.90285 3.048 5.57352 3.85482 6.04298 4.52717Z" fill="#29813F"/>
<path d="M7.24878 9.20716C7.85238 7.72799 8.88073 6.47293 9.50668 4.99376C9.84201 4.20935 9.95379 3.42494 9.19371 2.88705C8.61246 2.46123 7.91944 2.23711 7.27113 1.99058C8.07593 1.65441 9.12664 1.632 9.93144 1.99058C10.8927 2.41641 11.4293 3.40252 11.2951 4.43346C11.161 5.57646 10.468 6.6074 9.68553 7.43664C8.97015 8.15381 8.143 8.78134 7.24878 9.20716Z" fill="#29813F"/>
<path d="M3.69464 14.945C1.57087 14.8329 -0.664677 12.8383 0.184832 10.5747C0.900207 8.66968 3.22518 7.52668 5.10304 7.28015C4.05233 8.5128 2.5098 9.43168 1.74972 10.9109C0.944918 12.5245 2.66629 13.9364 3.69464 14.945Z" fill="#29813F"/>
<path d="M20.3941 10.0368L16.1466 9.61095C15.8783 9.58854 15.6771 9.34201 15.7218 9.07307L15.8783 7.45942C15.9007 7.19048 16.1466 6.98877 16.4148 7.0336L20.6624 7.45942C20.9306 7.48183 21.1318 7.72836 21.0871 7.9973L20.9306 9.61095C20.9083 9.87989 20.6624 10.0592 20.3941 10.0368Z" fill="#2B823F"/>
<path d="M31.997 19.2029L31.9523 18.7323C31.8852 18.1495 31.371 17.7237 30.7898 17.791L28.1742 18.0599C28.1519 17.6565 27.8389 17.3203 27.4365 17.3203H6.55645C6.15405 17.3203 5.81872 17.6565 5.81872 18.0823V18.4857L3.35961 18.2392C2.77837 18.172 2.26419 18.5978 2.19713 19.1805L2.15242 19.6511C2.08535 20.2338 2.5101 20.7493 3.09135 20.8165L5.81872 21.1079V21.5561V22.1388V28.4365C5.81872 30.4088 6.95885 32 8.36724 32H25.6257C27.0341 32 28.1742 30.4088 28.1742 28.4365V22.1388V21.5561V20.6597L31.0357 20.3683C31.617 20.3235 32.0417 19.7856 31.997 19.2029ZM12.3912 30.2967H9.37324C9.35088 30.2967 9.32853 30.2967 9.30617 30.2967H9.26146C8.34489 30.2967 7.60716 29.3778 7.60716 28.2348V22.0492C7.60716 21.982 7.60716 21.9371 7.60716 21.8699V20.5476C7.60716 20.2338 7.87542 19.9649 8.1884 19.9649H9.26146H9.30617H9.37324H11.5194H12.3912V30.2967Z" fill="#2B823F"/>
</svg>
